<svg id="linkedinsvg" xmlns="http://www.w3.org/2000/svg" width="382" height="382" viewBox="0 0 382 382">
  <rect id="Rectangle_7" data-name="Rectangle 7" width="382" height="382" rx="20" fill="#0077b5"/>
  <rect id="Rectangle_6" data-name="Rectangle 6" width="322" height="322" rx="4" transform="translate(30 30)" fill="#fff"/>
  <path id="Path_16" data-name="Path 16" d="M0,31.912A31.906,31.906,0,0,1,31.912,0H350.088A31.906,31.906,0,0,1,382,31.912V350.088A31.906,31.906,0,0,1,350.088,382H31.912A31.906,31.906,0,0,1,0,350.088ZM151.208,145.637h51.729v25.992c7.457-14.946,26.565-28.379,55.271-28.379,55.024,0,68.084,29.748,68.084,84.334V328.679H270.583V240.015c0-31.085-7.457-48.617-26.422-48.617-26.3,0-37.245,18.9-37.245,48.617v88.664H151.208Zm-95.5,180.654h55.708V143.25H55.708ZM119.375,83.563A35.813,35.813,0,1,1,83.563,47.75,35.815,35.815,0,0,1,119.375,83.563Z" fill="#0077b5" fill-rule="evenodd"/>
</svg>
